<svg viewBox="0 0 331.32 88.247" xmlns="http://www.w3.org/2000/svg"><defs><clipPath id="prefix__a"><path d="M0 0h1920v4837H0z"/></clipPath><clipPath id="prefix__b"><path d="M0 0h1920v4837H0z"/></clipPath><clipPath id="prefix__c"><path d="M0 0h1920v4837H0z"/></clipPath><clipPath id="prefix__d"><path d="M0 0h1920v4837H0z"/></clipPath><clipPath id="prefix__e"><path d="M0 0h1920v4837H0z"/></clipPath><clipPath id="prefix__f"><path d="M0 0h1920v4837H0z"/></clipPath><clipPath id="prefix__g"><path d="M0 0h1920v4837H0z"/></clipPath></defs><g clip-path="url(#prefix__a)" transform="matrix(1.3333 0 0 -1.3333 -541.33 6412.7)"><path d="M500.85 4752h-.072c-.61-.887-1.524-1.33-2.74-1.33-1.141 0-2.029.391-2.664 1.171-.634.781-.952 1.89-.952 3.328 0 1.439.319 2.557.956 3.353.637.797 1.524 1.195 2.66 1.195 1.184 0 2.092-.43 2.724-1.29h.104l-.056.629-.032.613v3.553h1.322v-12.389h-1.075zm-2.645-.222c.903 0 1.557.246 1.963.737.407.491.61 1.283.61 2.376v.278c0 1.237-.206 2.12-.617 2.647-.412.529-1.069.792-1.972.792-.775 0-1.369-.301-1.78-.903s-.617-1.453-.617-2.551c0-1.115.204-1.956.613-2.524s1.009-.852 1.8-.852M508.41 4750.6c-1.29 0-2.307.393-3.053 1.179-.746.785-1.119 1.877-1.119 3.273 0 1.407.347 2.525 1.039 3.353.693.828 1.623 1.242 2.791 1.242 1.093 0 1.958-.359 2.595-1.078s.955-1.668.955-2.846v-.835h-6.01c.026-1.025.285-1.803.776-2.334s1.182-.796 2.074-.796c.939 0 1.868.196 2.786.589v-1.18a6.933 6.933 0 00-1.326-.435 7.404 7.404 0 00-1.508-.132m-.358 7.938c-.701 0-1.26-.227-1.676-.683-.417-.456-.662-1.087-.736-1.892h4.561c0 .832-.186 1.47-.557 1.912-.372.442-.903.663-1.592.663M517.69 4759.7c.387 0 .735-.032 1.042-.096l-.183-1.23c-.361.08-.679.119-.955.119-.705 0-1.308-.286-1.81-.859-.501-.573-.751-1.286-.751-2.14v-4.678h-1.322v8.721h1.09l.152-1.612h.064c.323.567.713 1.005 1.169 1.313s.958.462 1.504.462"/></g><path d="M169.732 78.458h-1.805v-7.302h-8.176v7.302h-1.805V62.94h1.805v6.607h8.176V62.94h1.805z"/><g clip-path="url(#prefix__b)" transform="matrix(1.3333 0 0 -1.3333 -541.33 6412.7)"><path d="M543.65 4755.2c0-1.423-.358-2.534-1.075-3.333-.716-.799-1.706-1.199-2.969-1.199-.78 0-1.473.184-2.078.55s-1.072.892-1.401 1.577c-.33.684-.494 1.487-.494 2.405 0 1.423.356 2.531 1.067 3.325.711.793 1.698 1.191 2.961 1.191 1.221 0 2.191-.407 2.91-1.219.72-.813 1.079-1.911 1.079-3.297m-6.648 0c0-1.115.223-1.964.669-2.547.446-.584 1.101-.876 1.967-.876.865 0 1.522.29 1.97.872.448.58.673 1.431.673 2.551 0 1.109-.225 1.951-.673 2.527s-1.111.864-1.986.864c-.865 0-1.519-.285-1.959-.852-.441-.568-.661-1.414-.661-2.539M549.28 4750.6c-1.263 0-2.241.389-2.933 1.167-.693.777-1.039 1.878-1.039 3.301 0 1.46.352 2.588 1.055 3.385.703.796 1.704 1.194 3.005 1.194a5.97 5.97 0 001.257-.135c.42-.091.749-.198.987-.32l-.405-1.124c-.292.116-.611.213-.956.29s-.65.116-.915.116c-1.772 0-2.659-1.13-2.659-3.39 0-1.072.217-1.894.649-2.467.433-.573 1.073-.859 1.923-.859.726 0 1.472.156 2.236.469v-1.172c-.584-.303-1.319-.455-2.205-.455M559.37 4750.8v5.643c0 .711-.162 1.241-.486 1.591s-.831.525-1.522.525c-.918 0-1.589-.249-2.011-.748s-.633-1.316-.633-2.451v-4.56h-1.322v12.389h1.322v-3.752a8.07 8.07 0 00-.064-1.122h.08c.26.419.63.749 1.111.99.48.242 1.029.363 1.645.363 1.067 0 1.867-.254 2.401-.761.534-.506.801-1.312.801-2.416v-5.691zM568.88 4753.2c0-.813-.302-1.439-.907-1.88-.606-.441-1.455-.661-2.548-.661-1.157 0-2.059.184-2.707.55v1.227c.42-.212.869-.38 1.35-.502.48-.122.943-.183 1.389-.183.69 0 1.221.111 1.592.33.372.221.557.556.557 1.007 0 .34-.147.631-.441.872-.295.242-.87.527-1.724.856-.812.303-1.389.567-1.731.793-.343.225-.597.482-.765.768-.167.287-.251.63-.251 1.028 0 .711.29 1.273.868 1.684.579.411 1.372.617 2.381.617.939 0 1.857-.192 2.754-.574l-.47-1.076c-.875.361-1.669.541-2.38.541-.626 0-1.099-.097-1.417-.293-.318-.197-.478-.467-.478-.812 0-.233.06-.433.18-.597.119-.165.311-.321.577-.47.265-.148.775-.364 1.528-.645 1.035-.377 1.734-.757 2.098-1.139.363-.382.545-.862.545-1.441M574.34 4750.6c-1.263 0-2.241.389-2.933 1.167-.693.777-1.039 1.878-1.039 3.301 0 1.46.352 2.588 1.055 3.385.703.796 1.704 1.194 3.005 1.194.419 0 .838-.045 1.258-.135.419-.091.748-.198.986-.32l-.405-1.124c-.292.116-.61.213-.956.29a4.25 4.25 0 01-.915.116c-1.772 0-2.659-1.13-2.659-3.39 0-1.072.217-1.894.649-2.467.433-.573 1.073-.859 1.923-.859.726 0 1.472.156 2.236.469v-1.172c-.584-.303-1.319-.455-2.205-.455M584.42 4750.8v5.643c0 .711-.162 1.241-.486 1.591s-.831.525-1.522.525c-.918 0-1.589-.249-2.011-.748s-.633-1.316-.633-2.451v-4.56h-1.322v12.389h1.322v-3.752a8.07 8.07 0 00-.064-1.122h.08c.26.419.63.749 1.111.99.48.242 1.029.363 1.645.363 1.067 0 1.867-.254 2.401-.761.534-.506.801-1.312.801-2.416v-5.691zM589.55 4759.5v-5.659c0-.711.162-1.241.486-1.591.324-.351.831-.526 1.522-.526.913 0 1.581.25 2.003.749.422.498.634 1.313.634 2.443v4.584h1.321v-8.721h-1.091l-.19 1.166h-.072a2.65 2.65 0 00-1.127-.987c-.481-.228-1.029-.342-1.645-.342-1.062 0-1.857.252-2.386.756-.528.504-.792 1.311-.792 2.42v5.708z"/></g><path d="M257.957 78.458h-1.763V61.94h1.763z"/><g clip-path="url(#prefix__c)" transform="matrix(1.3333 0 0 -1.3333 -541.33 6412.7)"><path d="M605.8 4750.6c-1.29 0-2.307.393-3.053 1.179-.746.785-1.119 1.877-1.119 3.273 0 1.407.346 2.525 1.039 3.353s1.623 1.242 2.79 1.242c1.094 0 1.959-.359 2.596-1.078.636-.719.955-1.668.955-2.846v-.835h-6.01c.026-1.025.285-1.803.776-2.334s1.182-.796 2.073-.796c.94 0 1.869.196 2.787.589v-1.18a6.933 6.933 0 00-1.326-.435 7.404 7.404 0 00-1.508-.132m-.359 7.938c-.7 0-1.259-.227-1.675-.683-.417-.456-.662-1.087-.736-1.892h4.561c0 .832-.186 1.47-.558 1.912-.371.442-.902.663-1.592.663M622.71 4750.8l-1.45 3.7h-4.667l-1.434-3.7h-1.369l4.603 11.688h1.139l4.579-11.688zm-1.872 4.923l-1.354 3.605a19.015 19.015 0 00-.541 1.68 15.01 15.01 0 00-.502-1.68l-1.37-3.605zM630.71 4750.8l-.263 1.242h-.064c-.434-.548-.868-.919-1.301-1.114-.432-.194-.972-.291-1.619-.291-.866 0-1.543.223-2.034.669-.491.447-.736 1.082-.736 1.905 0 1.764 1.408 2.689 4.226 2.774l1.48.048v.54c0 .684-.147 1.188-.442 1.514-.294.326-.765.488-1.412.488-.727 0-1.55-.222-2.468-.668l-.406 1.012c.43.233.901.417 1.414.549.511.133 1.025.2 1.54.2 1.039 0 1.81-.231 2.312-.693.501-.462.752-1.202.752-2.221v-5.954zm-2.985.929c.823 0 1.469.226 1.938.676.47.451.704 1.083.704 1.895v.787l-1.321-.056c-1.05-.037-1.808-.2-2.272-.489s-.696-.739-.696-1.349c0-.477.144-.841.434-1.09.289-.249.693-.374 1.213-.374"/></g><path d="M306.075 78.458h-1.762V61.94h1.762z"/><g clip-path="url(#prefix__d)" transform="matrix(1.3333 0 0 -1.3333 -541.33 6412.7)"><path d="M641.89 4750.6c-1.29 0-2.307.393-3.053 1.179-.746.785-1.119 1.877-1.119 3.273 0 1.407.347 2.525 1.039 3.353.693.828 1.623 1.242 2.791 1.242 1.093 0 1.958-.359 2.595-1.078.636-.719.955-1.668.955-2.846v-.835h-6.01c.026-1.025.285-1.803.776-2.334s1.182-.796 2.073-.796c.94 0 1.869.196 2.787.589v-1.18a6.948 6.948 0 00-1.325-.435 7.421 7.421 0 00-1.509-.132m-.359 7.938c-.7 0-1.259-.227-1.675-.683-.417-.456-.662-1.087-.736-1.892h4.561c0 .832-.186 1.47-.557 1.912-.372.442-.903.663-1.593.663M653.16 4750.8v5.643c0 .711-.162 1.241-.486 1.591s-.831.525-1.522.525c-.913 0-1.582-.246-2.007-.74-.425-.493-.637-1.308-.637-2.443v-4.576h-1.322v8.721h1.075l.215-1.19h.064c.271.429.65.762 1.139.999a3.7 3.7 0 001.632.354c1.052 0 1.843-.254 2.374-.76.531-.507.797-1.318.797-2.432v-5.692z"/></g><path d="M121.853 52.459h-3.237V36.941h8.899v2.694h-5.662v4h5.27v2.695h-5.27z"/><g clip-path="url(#prefix__e)" transform="matrix(1.3333 0 0 -1.3333 -541.33 6412.7)"><path d="M505.49 4774.8c0-.88.144-1.545.434-1.997.289-.45.76-.676 1.412-.676.647 0 1.113.224 1.396.673.284.447.426 1.114.426 2 0 .88-.143 1.541-.43 1.981-.286.44-.755.661-1.408.661-.647 0-1.114-.219-1.4-.657-.287-.437-.43-1.099-.43-1.985m6.152-.003c0-1.45-.382-2.582-1.146-3.4-.764-.817-1.828-1.226-3.192-1.226-.854 0-1.608.187-2.261.562a3.736 3.736 0 00-1.504 1.611c-.35.701-.525 1.518-.525 2.453 0 1.453.379 2.584 1.138 3.391.759.806 1.826 1.209 3.2 1.209.854 0 1.608-.185 2.26-.557a3.722 3.722 0 001.505-1.6c.35-.695.525-1.51.525-2.443M518.46 4779.4c.329 0 .602-.023.82-.071l-.183-2.277a2.74 2.74 0 01-.716.08c-.775 0-1.378-.199-1.811-.597-.432-.398-.648-.955-.648-1.671v-4.527h-2.429v8.9h1.84l.358-1.5h.119c.276.498.649.901 1.118 1.205.47.306.98.458 1.532.458M526.96 4773c0-.914-.317-1.609-.951-2.087s-1.583-.717-2.846-.717c-.647 0-1.199.044-1.656.131a6.22 6.22 0 00-1.281.387v2.007c.451-.213.959-.39 1.524-.533.565-.144 1.063-.215 1.493-.215.88 0 1.321.255 1.321.765a.64.64 0 01-.176.466c-.116.119-.318.254-.604.406-.287.152-.669.328-1.146.53-.685.287-1.188.552-1.509.797-.321.244-.554.524-.7.84s-.219.705-.219 1.167c0 .789.307 1.399.919 1.831.613.432 1.482.647 2.607.647a7.431 7.431 0 003.129-.698l-.733-1.747c-.445.19-.862.347-1.249.469s-.783.183-1.186.183c-.717 0-1.074-.194-1.074-.582 0-.217.115-.406.346-.565s.736-.396 1.516-.709c.695-.282 1.204-.544 1.528-.789.324-.244.562-.526.716-.845.154-.318.231-.698.231-1.139M532.31 4770.2c-2.77 0-4.155 1.521-4.155 4.562 0 1.512.377 2.667 1.131 3.466.753.799 1.833 1.198 3.239 1.198 1.029 0 1.952-.201 2.769-.604l-.716-1.877c-.382.154-.737.28-1.066.378s-.658.148-.987.148c-1.262 0-1.893-.897-1.893-2.689 0-1.74.631-2.61 1.893-2.61.467 0 .899.063 1.297.188a4.64 4.64 0 011.194.585v-2.082c-.393-.25-.789-.423-1.19-.519s-.906-.144-1.516-.144M545.11 4770.3h-2.428v5.197c0 1.284-.477 1.927-1.432 1.927-.678 0-1.169-.231-1.471-.693s-.453-1.21-.453-2.244v-4.187h-2.428v12.389h2.428v-2.526c0-.196-.019-.659-.056-1.387l-.056-.717h.128c.541.87 1.4 1.304 2.577 1.304 1.045 0 1.838-.281 2.379-.843.542-.562.812-1.368.812-2.419zM553.75 4770.3l-.326 1.138h-.128a2.56 2.56 0 00-1.106-.962c-.477-.226-1.021-.339-1.631-.339-1.045 0-1.832.28-2.363.84-.53.56-.795 1.366-.795 2.418v5.805h2.428v-5.197c0-.642.114-1.124.342-1.445s.591-.481 1.089-.481c.679 0 1.169.227 1.472.681.302.453.453 1.205.453 2.256v4.186h2.428v-8.9zM566.21 4770.3h-2.428v5.197c0 .642-.114 1.124-.342 1.445s-.591.482-1.09.482c-.678 0-1.169-.228-1.471-.681-.302-.454-.453-1.206-.453-2.256v-4.187h-2.428v8.9h1.854l.327-1.141h.135c.271.43.643.754 1.118.974s1.014.33 1.619.33c1.035 0 1.819-.279 2.355-.839s.804-1.368.804-2.423zM576.29 4779.2v-1.238l-1.393-.36c.254-.397.382-.842.382-1.336 0-.955-.333-1.699-.999-2.232-.666-.534-1.591-.8-2.776-.8l-.437.024-.359.04c-.249-.192-.374-.404-.374-.638 0-.349.446-.524 1.338-.524h1.513c.977 0 1.721-.21 2.233-.628.513-.419.768-1.034.768-1.845 0-1.039-.433-1.845-1.301-2.417s-2.114-.859-3.738-.859c-1.242 0-2.192.216-2.847.648-.656.432-.984 1.038-.984 1.816 0 .536.168.983.502 1.344.335.359.825.617 1.473.771-.25.106-.467.279-.653.521a1.235 1.235 0 00-.278.768c0 .34.098.622.294.848.197.225.481.447.852.664a2.39 2.39 0 00-1.111.972c-.273.445-.41.97-.41 1.575 0 .971.316 1.722.948 2.253.631.53 1.534.796 2.707.796.249 0 .546-.022.888-.066s.561-.076.657-.097zm-6.872-10.159c0-.333.161-.595.482-.786s.771-.286 1.35-.286c.871 0 1.553.119 2.046.357.494.239.741.564.741.978 0 .333-.146.564-.438.691s-.743.191-1.354.191h-1.258c-.446 0-.819-.105-1.119-.315-.3-.209-.45-.485-.45-.83m.884 7.246c0-.484.11-.866.33-1.148.221-.281.557-.422 1.008-.422.457 0 .791.141 1.004.422.212.282.318.664.318 1.148 0 1.072-.44 1.609-1.322 1.609-.892 0-1.338-.537-1.338-1.609M583.78 4773c0-.914-.317-1.609-.951-2.087s-1.583-.717-2.846-.717c-.648 0-1.199.044-1.656.131a6.22 6.22 0 00-1.281.387v2.007c.45-.213.959-.39 1.524-.533.565-.144 1.062-.215 1.492-.215.881 0 1.322.255 1.322.765a.64.64 0 01-.176.466c-.116.119-.318.254-.605.406-.286.152-.668.328-1.146.53-.684.287-1.187.552-1.508.797-.321.244-.554.524-.7.84s-.219.705-.219 1.167c0 .789.306 1.399.919 1.831s1.482.647 2.607.647a7.423 7.423 0 003.128-.698l-.732-1.747c-.445.19-.862.347-1.249.469a3.932 3.932 0 01-1.187.183c-.716 0-1.074-.194-1.074-.582 0-.217.116-.406.346-.565.231-.159.737-.396 1.516-.709.696-.282 1.205-.544 1.529-.789.323-.244.562-.526.716-.845.154-.318.231-.698.231-1.139"/></g><path d="M247.61 52.459h-9.377v-1.915l5.503-7.474h-5.173v-2.477h8.857v2.105l-5.355 7.284h5.545z"/><g clip-path="url(#prefix__f)" transform="matrix(1.3333 0 0 -1.3333 -541.33 6412.7)"><path d="M596.98 4777.7c-.515 0-.919-.163-1.211-.489-.292-.325-.459-.787-.502-1.386h3.411c-.011.599-.168 1.061-.47 1.386-.303.326-.712.489-1.228.489m.343-7.499c-1.434 0-2.554.396-3.361 1.187s-1.211 1.91-1.211 3.359c0 1.491.373 2.644 1.119 3.459.746.814 1.777 1.222 3.094 1.222 1.259 0 2.239-.358 2.939-1.074.701-.716 1.051-1.704 1.051-2.966v-1.177h-5.743c.027-.691.231-1.23.614-1.618.382-.388.918-.582 1.609-.582.536 0 1.043.056 1.522.168.477.111.977.289 1.497.534v-1.882c-.425-.212-.879-.37-1.362-.474s-1.073-.156-1.768-.156M610.97 4770.3h-2.428v5.197c0 .642-.114 1.124-.342 1.445s-.591.482-1.089.482c-.68 0-1.17-.228-1.472-.681-.302-.454-.453-1.206-.453-2.256v-4.187h-2.428v8.9h1.854l.327-1.141h.135c.271.43.643.754 1.118.974s1.014.33 1.619.33c1.034 0 1.82-.279 2.356-.839.535-.56.803-1.368.803-2.423zM617.06 4772.1c.424 0 .934.093 1.528.278v-1.811c-.605-.271-1.348-.407-2.229-.407-.971 0-1.679.246-2.121.737-.444.491-.665 1.227-.665 2.209v4.292h-1.163v1.028l1.338.813.701 1.879h1.552v-1.894h2.491v-1.826h-2.491v-4.288c0-.344.097-.599.291-.763.193-.165.449-.247.768-.247M625.18 4779.4c.329 0 .602-.023.82-.071l-.183-2.277c-.197.054-.436.08-.717.08-.774 0-1.377-.199-1.81-.597-.432-.398-.649-.955-.649-1.671v-4.527h-2.428v8.9h1.839l.359-1.5h.119c.276.498.649.901 1.118 1.205.47.306.98.458 1.532.458M633.77 4770.3l-.327 1.138h-.127c-.26-.415-.629-.736-1.106-.962s-1.021-.339-1.631-.339c-1.045 0-1.832.28-2.363.84-.53.56-.796 1.366-.796 2.418v5.805h2.429v-5.197c0-.642.114-1.124.342-1.445s.591-.481 1.089-.481c.678 0 1.169.227 1.472.681.302.453.452 1.205.452 2.256v4.186h2.429v-8.9zM645.98 4770.3h-2.428v5.197c0 .642-.107 1.124-.323 1.445-.214.321-.553.482-1.015.482-.621 0-1.072-.228-1.354-.685-.281-.456-.421-1.207-.421-2.252v-4.187h-2.429v8.9h1.855l.326-1.141h.136c.239.408.584.728 1.035.958.451.231.969.346 1.553.346 1.332 0 2.235-.434 2.707-1.304h.215c.239.414.591.735 1.055.963.464.227.989.341 1.573.341 1.008 0 1.771-.258 2.289-.775.517-.517.776-1.347.776-2.487v-5.801h-2.436v5.197c0 .642-.108 1.124-.323 1.445s-.553.482-1.015.482c-.595 0-1.039-.213-1.334-.637-.294-.425-.442-1.099-.442-2.022zM501.85 4793.1c0-1.051-.378-1.878-1.135-2.484-.757-.604-1.81-.907-3.158-.907-1.243 0-2.342.233-3.297.701v2.292c.786-.351 1.451-.597 1.995-.74a5.878 5.878 0 011.494-.216c.541 0 .957.104 1.246.311.29.207.435.515.435.923 0 .229-.064.432-.192.609a2.133 2.133 0 01-.561.514c-.247.164-.75.427-1.51.788-.711.334-1.245.656-1.601.963-.356.308-.64.666-.852 1.075-.213.409-.319.887-.319 1.433 0 1.03.349 1.839 1.047 2.428s1.663.884 2.895.884c.606 0 1.183-.072 1.733-.215a12.023 12.023 0 001.724-.605l-.796-1.919c-.622.255-1.136.433-1.542.534s-.806.151-1.199.151c-.467 0-.825-.109-1.075-.327a1.073 1.073 0 01-.375-.851c0-.218.051-.407.151-.57.101-.162.262-.318.482-.469.221-.152.743-.424 1.566-.816 1.089-.52 1.835-1.042 2.239-1.565.403-.523.605-1.163.605-1.922M507.21 4789.7c-2.77 0-4.155 1.521-4.155 4.562 0 1.512.377 2.667 1.131 3.466.753.799 1.833 1.198 3.239 1.198 1.029 0 1.952-.201 2.769-.604l-.716-1.877c-.382.154-.737.28-1.066.378s-.658.147-.987.147c-1.262 0-1.894-.896-1.894-2.688 0-1.74.632-2.609 1.894-2.609.467 0 .899.062 1.297.187a4.64 4.64 0 011.194.585v-2.082c-.393-.25-.789-.423-1.19-.519s-.906-.144-1.516-.144M520.02 4789.9h-2.428v5.197c0 1.284-.477 1.927-1.432 1.927-.679 0-1.169-.231-1.471-.693s-.453-1.21-.453-2.244v-4.187h-2.429v12.389h2.429v-2.526c0-.196-.019-.659-.056-1.386l-.056-.718h.128c.541.87 1.4 1.304 2.577 1.304 1.045 0 1.838-.281 2.379-.843.542-.563.812-1.369.812-2.419zM528.65 4789.9l-.326 1.138h-.127a2.571 2.571 0 00-1.106-.962c-.478-.226-1.022-.339-1.632-.339-1.044 0-1.832.28-2.363.84-.53.56-.795 1.366-.795 2.417v5.806h2.428v-5.197c0-.642.114-1.124.342-1.445s.591-.481 1.089-.481c.679 0 1.169.226 1.472.681.302.453.453 1.205.453 2.256v4.186h2.428v-8.9zm-4.979 11.181c0 .345.1.611.299.797.199.185.468.278.808.278.35 0 .625-.098.824-.295.199-.196.298-.456.298-.78 0-.318-.1-.574-.302-.768-.202-.193-.475-.29-.82-.29-.34 0-.609.093-.808.278-.199.186-.299.446-.299.78m3.213 0c0 .372.107.644.322.817.215.171.481.258.8.258.345 0 .619-.095.824-.287.204-.191.306-.453.306-.788 0-.324-.103-.58-.31-.771-.207-.192-.48-.287-.82-.287-.319 0-.585.086-.8.258-.215.173-.322.44-.322.8"/></g><path d="M172.425 26.326h-3.237V9.808h3.237z"/><g clip-path="url(#prefix__g)" transform="matrix(1.3333 0 0 -1.3333 -541.33 6412.7)"><path d="M541.41 4797.2c-.515 0-.919-.163-1.211-.488-.292-.326-.46-.788-.502-1.387h3.41c-.01.599-.167 1.061-.47 1.387-.303.325-.712.488-1.227.488m.343-7.499c-1.434 0-2.554.396-3.361 1.187s-1.211 1.91-1.211 3.359c0 1.492.373 2.644 1.119 3.459.746.814 1.778 1.222 3.094 1.222 1.259 0 2.238-.358 2.939-1.074.701-.715 1.051-1.704 1.051-2.966v-1.176h-5.743c.027-.692.231-1.231.614-1.619.382-.388.918-.582 1.609-.582.536 0 1.043.056 1.521.168a7.55 7.55 0 011.498.534v-1.882a5.748 5.748 0 00-1.362-.474c-.483-.103-1.073-.156-1.768-.156M552.15 4799c.329 0 .602-.023.82-.071l-.183-2.277c-.197.054-.436.08-.717.08-.774 0-1.378-.199-1.81-.597s-.649-.955-.649-1.671v-4.527h-2.428v8.9h1.839l.359-1.5h.119c.276.498.649.9 1.118 1.205.47.306.98.458 1.532.458"/></g><path d="M196.852 19.127h5.705v2.653h-5.705z"/><path d="M97.987 38.06C98.898 11.946 88.994 1.317 60.147.31 44.035-.253 13.483 1.654 4.544 16.067 1.224 21.42.235 28.282.024 34.377c-.213 6.078.772 11.897 1.454 17.911 2.526 22.326 12.71 35.22 38.52 36.122 21.748.76 47.296-5.464 54.697-26.66 2.63-7.528 3.018-15.828 3.292-23.69" fill="#009ee3"/><path d="M69.081 11.793c0-.304.802-.474 2.407-.514 1.605-.039 3.477.034 5.615.222 2.138.187 3.18.596 3.125 1.226-.07.794-.895 7.378-2.475 19.751-.086.681-.634 1.256-1.641 1.72-1.008.464-2.39.62-4.143.467-2.385-.21-3.576-.963-3.573-2.26zm8.206 29.344c-.123 1.397-.654 2.324-1.591 2.78-.937.457-2.208.616-3.812.476-1.603-.142-2.81-.488-3.617-1.043-.807-.553-1.146-1.584-1.014-3.09.216-2.467 1.996-3.555 5.34-3.263 3.344.293 4.908 1.673 4.694 4.14M18.03 25.393c-.766.081-1.526-.76-2.278-2.52s-1.216-3.476-1.392-5.145c-.04-.383.339-.857 1.137-1.425.798-.568 2.039-1.128 3.724-1.679 1.686-.55 3.54-.932 5.566-1.145 7.854-.826 12.067 1.498 12.643 6.97.164 1.56-.016 2.943-.54 4.144-.524 1.204-1.21 2.113-2.058 2.728-1.727 1.204-3.355 1.901-4.884 2.09l-.94.14c.032.3.15.773.356 1.415.206.643.334 1.21.386 1.703.047.437-.664.85-2.132 1.24-1.466.39-2.746.641-3.84.756-1.67.176-2.746-.127-3.23-.906-.483-.778-.864-2.495-1.143-5.149-.066-.63 1.062-1.218 3.383-1.766a6.568 6.568 0 002.312-1.115c.678-.515.977-1.153.897-1.92-.081-.767-.736-1.084-1.968-.955s-2.49.58-3.78 1.351c-1.288.772-2.028 1.168-2.22 1.188m7.619 10.486c1.86-.196 3.308-.105 4.344.27 1.034.376 1.632 1.316 1.79 2.821.259 2.461-1.528 3.895-5.358 4.297s-5.876-.628-6.135-3.09c-.26-2.462 1.527-3.895 5.359-4.298M52.135 28.06c.773 0 1.44-.067 1.997-.202a4.081 4.081 0 001.518-.712c.938-.681 1.408-1.95 1.408-3.808 0-1.65-.479-2.833-1.44-3.545-.898-.66-2.059-.99-3.483-.99-.61 0-1.13.029-1.564.085a5.292 5.292 0 00-1.324.364c-.448.187-.81.438-1.084.758-.272.32-.497.762-.672 1.324-.176.562-.264 1.23-.264 2.004 0 1.57.444 2.748 1.332 3.538s2.08 1.184 3.576 1.184m2.303 6.755l-1.866 7.33c-.292 1.1-1.471 1.468-3.54 1.104-1.52-.27-2.654-.715-3.403-1.336-.747-.622-1.082-1.232-1-1.831l.997-7.101c-1.681-.815-3.061-1.904-4.141-3.268-1.932-2.443-2.54-5.688-1.827-9.739.353-1.998.884-3.683 1.592-5.055.71-1.372 1.49-2.41 2.341-3.111s1.9-1.19 3.144-1.465c1.244-.275 2.438-.387 3.583-.336s2.504.214 4.076.492c3.677.648 6.525 2.029 8.542 4.144 2.155 2.274 2.856 5.543 2.104 9.806-.846 4.796-2.636 7.86-5.372 9.19a10.77 10.77 0 01-4.24 1.148c-.32.02-.649.03-.99.028" fill="#fff"/><path d="M34.629 71.259c-.66.578-1.603 1.093-2.83 1.544s-2.835.762-4.82.935-3.887.175-5.702.002-3.126-.426-3.938-.758c-.81-.33-1.232-.685-1.264-1.06-.116-1.317-.047-2.702.204-4.155.252-1.455.636-2.206 1.153-2.251.093-.007 1.097.224 3.01.696s3.337.668 4.277.585 1.542-.236 1.806-.46c.265-.224.381-.524.348-.901-.033-.375-.321-.688-.864-.936s-1.21-.45-2.006-.605a17.503 17.503 0 01-2.606-.75 19.305 19.305 0 01-2.644-1.189c-.82-.45-1.53-1.127-2.13-2.033-.602-.907-.955-1.97-1.062-3.192-.456-5.217 2.428-8.099 8.656-8.643 2.327-.202 4.35-.232 6.067-.086 1.718.146 2.94.37 3.665.674.724.304 1.103.632 1.133.984.107 1.222-.065 2.563-.517 4.023-.453 1.461-.95 2.215-1.49 2.261-.094.01-.409-.07-.945-.237-1.61-.545-2.926-.773-3.949-.684s-1.707.244-2.055.464c-.348.219-.505.523-.47.91.033.389.32.683.858.885s1.2.369 1.98.502c.782.132 1.642.364 2.583.698.941.332 1.823.74 2.647 1.223s1.538 1.21 2.145 2.175c.604.965.965 2.117 1.083 3.457.124 1.41-.128 2.723-.756 3.938a6.774 6.774 0 01-1.567 1.984M49.922 72.725c0 .381-.764.66-2.292.837a37.486 37.486 0 01-4.35.267c-1.375 0-2.263-.088-2.666-.267-.403-.177-.604-.456-.604-.837V48.591c0-.66.308-1.13.924-1.408.616-.28 1.776-.42 3.481-.42h13.18c.497 0 .747.959.747 2.875s-.112 3.376-.338 4.378c-.225 1.002-.516 1.503-.87 1.503l-7.212-.38v2.588c3.15-.152 5.257-.228 6.324-.228.354 0 .598.203.728.61.13.405.196 1.186.196 2.34s-.119 2.26-.356 3.311c-.238 1.053-.568 1.58-.995 1.58l-5.897-.228zM80.894 56.059c-.037.423-.745 1.344-2.124 2.761-1.378 1.419-3.429 3.323-6.147 5.713l7.438.652c.259.022.445.388.561 1.096.116.71.12 1.692.008 2.95-.109 1.257-.353 2.354-.732 3.292-.377.937-.813 1.385-1.306 1.34l-17.168-1.502c-.681-.06-1.109-.784-1.284-2.172-.174-1.39-.192-2.882-.052-4.48.031-.352.774-1.258 2.227-2.717 1.453-1.46 3.632-3.482 6.533-6.07l-6.838-.598c-.634-.056-.862-1.105-.683-3.15.125-1.434.396-2.778.813-4.03.419-1.254.863-1.86 1.332-1.82l16.25 1.423c1.2.104 1.59 2.541 1.172 7.312" fill="#134094"/></svg>